<?xml version="1.0" encoding="utf-8"?>
<!-- Generator: Adobe Illustrator 20.1.0, SVG Export Plug-In . SVG Version: 6.00 Build 0)  -->
<svg version="1.1" id="Layer_1" xmlns="http://www.w3.org/2000/svg" xmlns:xlink="http://www.w3.org/1999/xlink" x="0px" y="0px"
	 viewBox="0 0 612 613.3" style="enable-background:new 0 0 612 613.3;" xml:space="preserve">
<style type="text/css">
	.st0{fill:#009789;}
	.st1{fill:#37474F;}
	.st2{fill:#FFFFFF;}
	.st3{font-family:'Helvetica-Bold';}
	.st4{font-size:53.8037px;}
	.st5{letter-spacing:2;}
	.st6{font-family:'Helvetica-Light';}
	.st7{fill:#FDFEFE;}
	.st8{letter-spacing:5;}
</style>
<path class="st0" d="M50.8,450.5c3.4-8.4,3.1-17.2,3.6-25.9c0.4-6.9,2.6-13,5.9-19c3.5-6.4,4.8-12.9,3.1-20.4
	c-4-17.9-0.2-34.5,11.2-48.7c5.2-6.4,12-11.6,18.5-16.8c5.2-4.2,8.3-9.4,10.7-15.5c2.9-7.5,6.7-14.7,10-22.1
	c0.7-1.6,1.1-3.4,1.7-5.2c1.9-6.3,3.6-12.7,5.8-18.9c2.3-6.4,3.8-12.7,3-19.7c-0.7-7.1,0.6-13.8,6.6-18.9c1.4,3.1,2.6,5.9,3.9,8.7
	c0.4-0.1,0.8-0.2,1.2-0.4c0.3-1.4,0.5-2.8,1-5.2c3.7,6.7,7,12.6,10.5,18.8c3.3-2.4,7.2-5.1,11-8c12.7-9.7,26.9-16.4,41.5-22.9
	c14.6-6.5,29.9-10.3,45.3-13.2c12.6-2.3,25.5-2.8,38.4-3.3c17.8-0.7,35.6,1.4,52.8,5.7c15,3.7,29.4,9.5,44.2,13.9
	c7.3,2.2,15,3.3,22.6,4.7c6.8,1.3,13.9,1.4,20.2,3.8c6.3,2.3,12.3,1.3,18.3,0.6c8.8-1,17.5-3.7,26.3-4.4c9.4-0.8,19-0.6,28.5-0.2
	c16,0.7,32,2.9,48,2.7c12.3-0.2,24.5-3,35.6-9.1c3-1.6,6.1-3.3,9.3-4.6C548.3,90.2,437,6.3,306,6.3C140.1,6.3,5.7,140.8,5.7,306.7
	c0,56,15.3,108.3,42,153.2C48.6,456.7,49.5,453.6,50.8,450.5z"/>
<path class="st1" d="M601,250.1c-0.8,1.6-1.6,3.2-2.5,4.8c-9,15.8-23.1,24.9-39.2,30.9c-9.4,3.5-19.7,5.7-29.8,6.4
	c-18.2,1.4-36.6,1.7-54.9,1.5c-14.9-0.1-28.7-5.3-41.8-12.1c-10.4-5.4-21.1-4.5-32-0.9c0.6,6.5,0.8,12.9,2,19.1
	c1.4,7.5,8.4,10.4,15.4,7.6c11.3-4.4,23.1-7.3,35.4-7.3c4.2,0,8.2,1.2,10.9,4.8c-0.1,0.3-0.2,0.6-0.3,0.7c-1.9,0.7-4.6,0.8-5.7,2.1
	c-2.9,3.6-3.2,8.2-2.1,12.5c1,4.1,2.8,8,4.3,12c0.3,0.9,0.4,1.8,0.6,2.6c-3.5-0.1-6.7-0.3-9.9-0.4c-4.1-0.1-7.4,0.9-8.6,5.5
	c-0.6,2.3-1.7,4.6-2.8,6.8c-1.6,3.3-2,6.5-0.9,10.1c0.7,2.1,0.6,4.4,1,7.7c-2.7-1.7-4.3-3-6.1-3.9c-9.7-4.5-15.2-2.5-21,5.7
	c-3,4.2-4.5,9.5-6.9,14.9c-2.9-0.3-4.6-3.5-6.3-6c-1.7-2.6-3.7-3.5-6.4-3.8c-0.9-0.1-2-0.2-2.8-0.7c-5.2-3.5-9.5-1.8-13.6,2
	c-0.7,0.6-1.7,1-2.4,1.6c-2.3,2-4.5,4-7.1,6.3c-1-2.6-2.4-6.1-3.7-9.7c-4-11.2,0.6-20,7.6-28.3c3.9-4.6,7.9-9.2,11.3-14.1
	c3.2-4.6,1.5-9.9-3.6-12c-10.9-4.6-21.8-9.1-32.7-13.6c-0.8-0.3-1.9-0.5-2.8-0.3c-13.6,4.3-27.6,6.2-41.7,8.1
	c-11.3,1.5-22.8,2.8-32.5,9.6c-6.4,4.4-12.4,9.5-18.6,14.4c4.6,4.7,8,9.7,14.8,9.2c8.1-0.6,16.3-0.5,24.2-2c3.6-0.7,6.7-4.3,9.8-6.9
	c2.9-2.4,5.5-5.2,8.3-7.8c2-1.9,4.1-3.6,6.2-5.5c0.7-0.7,1.3-1.5,2-2.3c0.7,0.9,1.7,1.8,2.1,2.8c0.4,1.1,0.3,2.4,0.4,4.2
	c2.3-1.9,4.5-3.7,6.8-5.7c2.8,5.7,2.1,11.3-1.2,16.4c-4.8,7.3-9.9,14.6-15.2,21.5c-6.4,8.3-15.5,9.9-25.3,8.5
	c-6-0.8-12-2.5-17.9-2.4c-13.4,0.1-26.7,1.2-40.1,1.8c-8.4,0.4-16.6-0.3-24-4.9c-0.9-0.6-2.4-0.7-3.5-0.4
	c-11.5,2.9-23.2,5.7-32.8,13.1c-7.1,5.4-13.4,11.8-20.1,17.6c-7.6,6.7-15.4,13.2-23,19.9c-0.9,0.8-1.8,1.8-2,2.9
	c-1.2,6.4-4.4,11.8-8.1,17.2c-5.2,7.5-7,16.2-6.2,25.4c0.8,9,0.4,17.8-6.5,24.6c-3.3,3.3-7.6,5.7-11.5,8.4c-1.1,0.3-2.2,0.5-3.3,0.8
	c-2.2,0.1-4.5,0.3-6.7,0.2c-3.4-0.2-6.6-0.7-9.8-1.4C122.8,561,209,607,306,607c165.9,0,300.3-134.5,300.3-300.3
	C606.3,287.3,604.5,268.4,601,250.1z"/>
<text transform="matrix(1 0 0 1 243.1587 112.3538)"><tspan x="0" y="0" class="st2 st3 st4 st5">HBS </tspan><tspan x="-145.8" y="58.1" class="st2 st6 st4">ADMIN APP DEV</tspan></text>
<text transform="matrix(1 0 0 1 229.9517 441.889)"><tspan x="0" y="0" class="st7 st3 st4">U</tspan><tspan x="38.9" y="0" class="st7 st3 st4 st8">I</tspan><tspan x="59.2" y="0" class="st7 st6 st4 st8">/</tspan><tspan x="79.5" y="0" class="st7 st3 st4">UX </tspan><tspan x="-96.2" y="57.9" class="st7 st3 st4">FRAMEWORK</tspan></text>
</svg>
